# xmcd
#
# Track frame offsets: 
#        150
#        14362
#        38257
#        54630
#        74532
#        87677
#        100015
#        115902
#        134700
#        163972
#        181200
#        211620
#
# Disc length: 3140 seconds
#
# Revision: 4
# Processed by: cddbd v1.4PL0 Copyright (c) Steve Scherf et al.
# Submitted via: ExactAudioCopy v0.95a2
#
DISCID=a50c420c
DTITLE=Charlie Robison - Life Of The Party
DYEAR=1998
DGENRE=
TTITLE0=Poor Man's Son
TTITLE1=Sunset Boulevard
TTITLE2=Barlight
TTITLE3=My Hometown
TTITLE4=Don't Call Me A Fool
TTITLE5=Arms Of Love
TTITLE6=I Don't Feel That Way
TTITLE7=You're Not The Best
TTITLE8=Loving County
TTITLE9=Waiting For The Mail
TTITLE10=Indianola
TTITLE11=Molly's Blues
EXTD=
EXTT0=
EXTT1=
EXTT2=
EXTT3=
EXTT4=
EXTT5=
EXTT6=
EXTT7=
EXTT8=
EXTT9=
EXTT10=
EXTT11=
PLAYORDER=
